<?xml version="1.0" encoding="UTF-8" standalone="no"?>
<!-- Created with Inkscape (http://www.inkscape.org/) -->

<svg
   width="50mm"
   height="50mm"
   viewBox="0 0 50 50"
   version="1.1"
   id="svg1"
   sodipodi:docname="favicon.svg"
   inkscape:version="1.3 (0e150ed6c4, 2023-07-21)"
   xmlns:inkscape="http://www.inkscape.org/namespaces/inkscape"
   xmlns:sodipodi="http://sodipodi.sourceforge.net/DTD/sodipodi-0.dtd"
   xmlns="http://www.w3.org/2000/svg"
   xmlns:svg="http://www.w3.org/2000/svg">
  <sodipodi:namedview
     id="namedview1"
     pagecolor="#505050"
     bordercolor="#eeeeee"
     borderopacity="1"
     inkscape:showpageshadow="0"
     inkscape:pageopacity="0"
     inkscape:pagecheckerboard="0"
     inkscape:deskcolor="#505050"
     inkscape:document-units="mm"
     inkscape:zoom="4.3550417"
     inkscape:cx="94.602998"
     inkscape:cy="94.602998"
     inkscape:window-width="2546"
     inkscape:window-height="1396"
     inkscape:window-x="7"
     inkscape:window-y="37"
     inkscape:window-maximized="1"
     inkscape:current-layer="svg1" />
  <defs
     id="defs1" />
  <g
     id="layer3">
    <g
       id="layer2"
       transform="matrix(1.2967046,0,0,1.1575242,-2.7770808,-0.60514607)">
      <path
         d="m 11.870308,37.671043 1.638655,-8.823528 H 9.8535016 v -2.731092 h 4.1176464 l 1.428571,-7.563024 H 11.32409 v -2.731092 h 4.537814 l 1.638655,-8.8235276 h 2.941176 L 18.80308,15.822307 h 6.722688 l 1.638655,-8.8235276 h 2.941176 l -1.638655,8.8235276 h 3.655462 v 2.731092 h -4.117647 l -1.428571,7.563024 h 4.07563 v 2.731092 h -4.537815 l -1.638655,8.823528 h -2.941176 l 1.638655,-8.823528 h -6.722688 l -1.638655,8.823528 z m 5.042016,-11.55462 h 6.722688 l 1.428571,-7.563024 h -6.722688 z"
         id="text2-2-0"
         style="font-size:42.0168px;font-family:'JetBrains Mono';-inkscape-font-specification:'JetBrains Mono';fill:#607857;stroke-width:3.50141"
         aria-label="#" />
      <path
         d="m 12.736975,37.242447 1.638655,-8.823528 h -3.655462 v -2.731092 h 4.117647 l 1.428571,-7.563024 h -4.07563 v -2.731092 h 4.537815 l 1.638655,-8.823528 h 2.941176 l -1.638655,8.823528 h 6.722688 L 28.03109,6.570183 h 2.941176 l -1.638655,8.823528 h 3.655461 v 2.731092 h -4.117646 l -1.428571,7.563024 h 4.075629 v 2.731092 H 26.98067 l -1.638655,8.823528 h -2.941176 l 1.638655,-8.823528 h -6.722688 l -1.638655,8.823528 z m 5.042016,-11.55462 h 6.722688 l 1.428571,-7.563024 h -6.722688 z"
         id="text2-6"
         style="font-size:42.0168px;font-family:'JetBrains Mono';-inkscape-font-specification:'JetBrains Mono';fill:#98c379;stroke-width:3.50129"
         aria-label="#" />
    </g>
  </g>
</svg>
