<?xml version="1.0" encoding="UTF-8" standalone="no"?>
<!-- Created with Inkscape (http://www.inkscape.org/) -->

<svg
   width="200mm"
   height="50.000008mm"
   viewBox="0 0 200 50.000008"
   version="1.1"
   id="svg1"
   sodipodi:docname="logo.svg"
   inkscape:version="1.3 (0e150ed6c4, 2023-07-21)"
   xmlns:inkscape="http://www.inkscape.org/namespaces/inkscape"
   xmlns:sodipodi="http://sodipodi.sourceforge.net/DTD/sodipodi-0.dtd"
   xmlns="http://www.w3.org/2000/svg"
   xmlns:svg="http://www.w3.org/2000/svg">
  <sodipodi:namedview
     id="namedview1"
     pagecolor="#505050"
     bordercolor="#eeeeee"
     borderopacity="1"
     inkscape:showpageshadow="0"
     inkscape:pageopacity="0"
     inkscape:pagecheckerboard="0"
     inkscape:deskcolor="#505050"
     inkscape:document-units="mm"
     inkscape:zoom="1.0887604"
     inkscape:cx="377.95276"
     inkscape:cy="93.684524"
     inkscape:window-width="2546"
     inkscape:window-height="1396"
     inkscape:window-x="7"
     inkscape:window-y="37"
     inkscape:window-maximized="1"
     inkscape:current-layer="svg1" />
  <defs
     id="defs1" />
  <g
     id="layer6"
     transform="translate(-1.6430215e-7,-100)">
    <g
       id="layer4"
       transform="matrix(0.99264735,0,0,0.98039325,27.720578,-1.7157017)">
      <path
         d="m 29.944388,142.2 v -24.3785 h 3.005568 v 10.4193 h 7.814476 V 117.8215 H 43.77 V 142.2 H 40.764432 V 130.97921 H 32.949956 V 142.2 Z m 26.916543,0.33395 q -3.172544,0 -5.07607,-1.87013 -1.903526,-1.90353 -1.903526,-5.14286 v -11.68832 h 3.005568 v 11.68832 q 0,2.00371 1.068646,3.20594 1.068646,1.16883 2.905382,1.16883 1.870131,0 2.938778,-1.16883 1.102041,-1.20223 1.102041,-3.20594 v -11.68832 h 3.005568 v 11.68832 q 0,3.23933 -1.936921,5.14286 -1.936922,1.87013 -5.109466,1.87013 z M 79.603075,142.2 q -2.43785,0 -3.907239,-1.4026 -1.435993,-1.43599 -1.435993,-3.77366 v -16.46383 h -6.345088 v -2.73841 h 9.350656 v 19.20224 q 0,1.13544 0.634508,1.80334 0.634509,0.63451 1.703156,0.63451 h 5.677183 V 142.2 Z m 20.037132,0 q -2.43785,0 -3.907238,-1.4026 -1.435994,-1.43599 -1.435994,-3.77366 v -16.46383 h -6.345088 v -2.73841 h 9.350656 v 19.20224 q 0,1.13544 0.634509,1.80334 0.634508,0.63451 1.703155,0.63451 h 5.677183 V 142.2 Z m 17.632673,0.33395 q -3.33952,0 -5.27644,-1.87013 -1.93692,-1.87013 -1.93692,-5.14286 v -11.02042 q 0,-3.27273 1.93692,-5.14286 1.93692,-1.87013 5.27644,-1.87013 3.27273,0 5.20966,1.90353 1.93692,1.87013 1.93692,5.10946 h -3.00557 q 0,-2.0705 -1.10204,-3.17254 -1.06865,-1.13544 -3.03897,-1.13544 -1.97031,0 -3.10575,1.13544 -1.10204,1.10204 -1.10204,3.17254 v 11.02042 q 0,2.0705 1.10204,3.20594 1.13544,1.10204 3.10575,1.10204 1.97032,0 3.03897,-1.10204 1.10204,-1.13544 1.10204,-3.20594 h 3.00557 q 0,3.23933 -1.93692,5.14286 -1.93693,1.87013 -5.20966,1.87013 z m 19.90356,0 q -3.53989,0 -5.64379,-1.87013 -2.1039,-1.87013 -2.1039,-5.14286 h 3.00557 q 0,2.0371 1.30241,3.20594 1.30241,1.13543 3.43971,1.13543 2.0705,0 3.30612,-1.20222 1.23562,-1.20223 1.23562,-3.13915 0,-1.46939 -0.80148,-2.53804 -0.76809,-1.10204 -2.23748,-1.50278 l -3.70687,-1.03525 q -2.30427,-0.66791 -3.64007,-2.37106 -1.30242,-1.73655 -1.30242,-4.07422 0,-1.93692 0.86828,-3.40631 0.86827,-1.46939 2.43785,-2.27087 1.56957,-0.83488 3.60668,-0.83488 2.0705,0 3.64008,0.83488 1.60297,0.80148 2.50464,2.27087 0.90167,1.436 0.90167,3.33952 h -3.00557 q 0,-1.66976 -1.13544,-2.70501 -1.13543,-1.06864 -2.90538,-1.06864 -1.76995,0 -2.87199,1.06864 -1.10204,1.03525 -1.10204,2.70501 0,1.33581 0.7013,2.30427 0.73469,0.93507 2.03711,1.30241 l 3.80705,1.06865 q 2.43785,0.66791 3.77366,2.53804 1.3692,1.83673 1.3692,4.37477 0,3.20594 -2.03711,5.10946 -2.0371,1.90353 -5.44341,1.90353 z m 20.03713,0 q -3.53989,0 -5.64379,-1.87013 -2.1039,-1.87013 -2.1039,-5.14286 h 3.00557 q 0,2.0371 1.30241,3.20594 1.30242,1.13543 3.43971,1.13543 2.0705,0 3.30612,-1.20222 1.23563,-1.20223 1.23563,-3.13915 0,-1.46939 -0.80149,-2.53804 -0.76809,-1.10204 -2.23748,-1.50278 l -3.70686,-1.03525 q -2.30427,-0.66791 -3.64008,-2.37106 -1.30241,-1.73655 -1.30241,-4.07422 0,-1.93692 0.86827,-3.40631 0.86828,-1.46939 2.43785,-2.27087 1.56957,-0.83488 3.60668,-0.83488 2.0705,0 3.64008,0.83488 1.60297,0.80148 2.50464,2.27087 0.90167,1.436 0.90167,3.33952 h -3.00557 q 0,-1.66976 -1.13544,-2.70501 -1.13543,-1.06864 -2.90538,-1.06864 -1.76994,0 -2.87198,1.06864 -1.10205,1.03525 -1.10205,2.70501 0,1.33581 0.7013,2.30427 0.7347,0.93507 2.03711,1.30241 l 3.80705,1.06865 q 2.43785,0.66791 3.77366,2.53804 1.3692,1.83673 1.3692,4.37477 0,3.20594 -2.0371,5.10946 -2.03711,1.90353 -5.44342,1.90353 z"
         id="text7"
         style="font-size:33.3952px;font-family:'JetBrains Mono';-inkscape-font-specification:'JetBrains Mono';fill:#617a57;stroke-width:42.5354"
         transform="scale(1.0018572,0.99814625)"
         aria-label="HullCSS" />
      <path
         d="m 30.942534,141.69907 v -24.3785 h 3.005568 v 10.4193 h 7.814476 v -10.4193 h 3.005568 v 24.3785 h -3.005568 v -11.22079 h -7.814476 v 11.22079 z m 26.916543,0.33395 q -3.172544,0 -5.07607,-1.87013 -1.903526,-1.90353 -1.903526,-5.14286 v -11.68832 h 3.005568 v 11.68832 q 0,2.00371 1.068646,3.20594 1.068646,1.16883 2.905382,1.16883 1.870131,0 2.938778,-1.16883 1.102041,-1.20223 1.102041,-3.20594 v -11.68832 h 3.005568 v 11.68832 q 0,3.23933 -1.936921,5.14286 -1.936922,1.87013 -5.109466,1.87013 z m 22.742144,-0.33395 q -2.43785,0 -3.907239,-1.4026 -1.435993,-1.436 -1.435993,-3.77366 v -16.46383 h -6.345088 v -2.73841 h 9.350656 v 19.20224 q 0,1.13544 0.634508,1.80334 0.634509,0.63451 1.703156,0.63451 h 5.677183 v 2.73841 z m 20.037129,0 q -2.437847,0 -3.907235,-1.4026 -1.435994,-1.436 -1.435994,-3.77366 v -16.46383 h -6.345088 v -2.73841 h 9.350656 v 19.20224 q 0,1.13544 0.634509,1.80334 0.634509,0.63451 1.703152,0.63451 h 5.67719 v 2.73841 z m 17.63268,0.33395 q -3.33952,0 -5.27644,-1.87013 -1.93692,-1.87013 -1.93692,-5.14286 v -11.02042 q 0,-3.27273 1.93692,-5.14286 1.93692,-1.87013 5.27644,-1.87013 3.27273,0 5.20965,1.90353 1.93692,1.87013 1.93692,5.10946 h -3.00556 q 0,-2.0705 -1.10205,-3.17254 -1.06864,-1.13544 -3.03896,-1.13544 -1.97032,0 -3.10575,1.13544 -1.10204,1.10204 -1.10204,3.17254 v 11.02042 q 0,2.0705 1.10204,3.20594 1.13543,1.10204 3.10575,1.10204 1.97032,0 3.03896,-1.10204 1.10205,-1.13544 1.10205,-3.20594 h 3.00556 q 0,3.23933 -1.93692,5.14286 -1.93692,1.87013 -5.20965,1.87013 z m 19.90355,0 q -3.53989,0 -5.64379,-1.87013 -2.10389,-1.87013 -2.10389,-5.14286 h 3.00556 q 0,2.0371 1.30242,3.20594 1.30241,1.13543 3.4397,1.13543 2.0705,0 3.30613,-1.20222 1.23562,-1.20223 1.23562,-3.13915 0,-1.46939 -0.80149,-2.53804 -0.76808,-1.10204 -2.23747,-1.50278 l -3.70687,-1.03525 q -2.30427,-0.66791 -3.64008,-2.37106 -1.30241,-1.73655 -1.30241,-4.07422 0,-1.93692 0.86827,-3.40631 0.86828,-1.46939 2.43785,-2.27087 1.56958,-0.83488 3.60669,-0.83488 2.0705,0 3.64007,0.83488 1.60297,0.80148 2.50464,2.27087 0.90167,1.436 0.90167,3.33952 h -3.00557 q 0,-1.66976 -1.13543,-2.70501 -1.13544,-1.06865 -2.90538,-1.06865 -1.76995,0 -2.87199,1.06865 -1.10204,1.03525 -1.10204,2.70501 0,1.33581 0.7013,2.30427 0.73469,0.93507 2.0371,1.30241 l 3.80706,1.06865 q 2.43785,0.6679 3.77365,2.53804 1.36921,1.83673 1.36921,4.37477 0,3.20594 -2.03711,5.10946 -2.03711,1.90353 -5.44342,1.90353 z m 20.03713,0 q -3.53989,0 -5.64378,-1.87013 -2.1039,-1.87013 -2.1039,-5.14286 h 3.00557 q 0,2.0371 1.30241,3.20594 1.30241,1.13543 3.4397,1.13543 2.07051,0 3.30613,-1.20222 1.23562,-1.20223 1.23562,-3.13915 0,-1.46939 -0.80148,-2.53804 -0.76809,-1.10204 -2.23748,-1.50278 l -3.70687,-1.03525 q -2.30427,-0.66791 -3.64008,-2.37106 -1.30241,-1.73655 -1.30241,-4.07422 0,-1.93692 0.86828,-3.40631 0.86827,-1.46939 2.43785,-2.27087 1.56957,-0.83488 3.60668,-0.83488 2.0705,0 3.64007,0.83488 1.60297,0.80148 2.50464,2.27087 0.90168,1.436 0.90168,3.33952 h -3.00557 q 0,-1.66976 -1.13544,-2.70501 -1.13544,-1.06865 -2.90538,-1.06865 -1.76995,0 -2.87199,1.06865 -1.10204,1.03525 -1.10204,2.70501 0,1.33581 0.7013,2.30427 0.73469,0.93507 2.03711,1.30241 l 3.80705,1.06865 q 2.43785,0.6679 3.77366,2.53804 1.3692,1.83673 1.3692,4.37477 0,3.20594 -2.03711,5.10946 -2.03711,1.90353 -5.44342,1.90353 z"
         id="text7-1"
         style="font-size:33.3952px;font-family:'JetBrains Mono';-inkscape-font-specification:'JetBrains Mono';fill:#98c379;stroke-width:42.5354"
         transform="scale(1.0018572,0.99814625)"
         aria-label="HullCSS" />
    </g>
    <g
       id="layer9">
      <path
         d="m 11.870317,124.06232 1.638655,-8.82353 H 9.8535102 v -2.73109 h 4.1176468 l 1.428571,-7.56303 h -4.07563 v -2.73109 h 4.537815 l 1.638655,-8.823527 h 2.941176 l -1.638655,8.823527 h 6.722688 l 1.638655,-8.823527 h 2.941176 l -1.638655,8.823527 h 3.655461 v 2.73109 h -4.117646 l -1.428571,7.56303 h 4.075629 v 2.73109 h -4.537814 l -1.638655,8.82353 h -2.941176 l 1.638655,-8.82353 h -6.722688 l -1.638655,8.82353 z m 5.042016,-11.55462 h 6.722688 l 1.428571,-7.56303 h -6.722688 z"
         id="text2-2-0-4"
         style="font-size:42.0168px;font-family:'JetBrains Mono';-inkscape-font-specification:'JetBrains Mono';fill:#607857;stroke-width:3.50141"
         transform="matrix(1.2967046,0,0,1.1575242,-2.7770807,-0.60514606)"
         aria-label="#" />
      <path
         d="m 12.736979,123.63372 1.638655,-8.82353 h -3.655462 v -2.73109 h 4.117647 l 1.428571,-7.56302 h -4.07563 v -2.7311 h 4.537815 l 1.638655,-8.823524 h 2.941176 l -1.638655,8.823524 h 6.722688 l 1.638655,-8.823524 h 2.941176 l -1.638655,8.823524 h 3.655461 v 2.7311 H 28.87143 l -1.428571,7.56302 h 4.075629 v 2.73109 h -4.537814 l -1.638655,8.82353 h -2.941176 l 1.638655,-8.82353 H 17.31681 l -1.638655,8.82353 z m 5.042016,-11.55462 h 6.722688 l 1.428571,-7.56302 h -6.722688 z"
         id="text2-6-6"
         style="font-size:42.0168px;font-family:'JetBrains Mono';-inkscape-font-specification:'JetBrains Mono';fill:#98c379;stroke-width:3.50129"
         transform="matrix(1.2967046,0,0,1.1575242,-2.7770807,-0.60514606)"
         aria-label="#" />
    </g>
  </g>
</svg>
